<?xml version="1.0" standalone="no"?><!DOCTYPE svg PUBLIC "-//W3C//DTD SVG 1.1//EN" "http://www.w3.org/Graphics/SVG/1.1/DTD/svg11.dtd"><svg t="1593244986141" class="icon" viewBox="0 0 1024 1024" version="1.1" xmlns="http://www.w3.org/2000/svg" p-id="2160" xmlns:xlink="http://www.w3.org/1999/xlink" width="32" height="32"><defs><style type="text/css"></style></defs><path d="M951.72 152.33h-77.571a35.29 35.29 0 0 0-27.843 13.583l-457.668 583.57-219.424-279.882a35.434 35.434 0 0 0-27.843-13.582h-77.57a8.877 8.877 0 0 0-7.896 5.018 9 9 0 0 0 0.931 9.351l304.027 387.716c14.209 18.085 41.484 18.085 55.761 0l542.06-691.471a8.918 8.918 0 0 0 0.948-9.335 8.801 8.801 0 0 0-7.913-4.967z" p-id="2161" fill="#ffffff"></path></svg>